/* XPM */
static char * after_xpm[] = {
"16 16 7 1",
" 	c None",
".	c #000000",
"+	c #808080",
"@	c #FFFF00",
"#	c #FFFFFF",
"$	c #800000",
"%	c #808000",
"              . ",
"    +++++      .",
"   +@@#@@+     .",
"   +$%%%$+     .",
"    +@@#@@+ . . ",
"    +$%%%$+ ..  ",
"     +%@#@%+... ",
" +++++$%$$$+    ",
"+@@@%%%%@@%+    ",
"+%$%%%%%$$$+    ",
" +%@%%%%@@%+    ",
" +$%$%$%$$$+    ",
" +%@%%%%%@%+    ",
" +$%$$..$$.+    ",
"  +++++++++     ",
"                "};
