/* XPM */
static char *fileopen_xpm[]={
"16 15 7 1",
". c None",
"# c #000000",
"e c #000040",
"a c #a0a0a0",
"d c #bfbf00",
"b c #ffff00",
"c c #ffffff",
"................",
"..........###...",
".........#...#.#",
"..aaa.........##",
".a###aaaaaaa.###",
"a#bcb#######a...",
"a#cbcbcbcbc#a...",
"a#bcbcbcbcb#aaaa",
"a#cbcb##########",
"a#bcb#ddddddddd#",
"a#cc#ddddddddd#a",
"a#b#ddddddddd#a.",
"a##ddddddddd#a..",
"a##eeeee####a...",
".aaaaaaaaaaa...."};
