/* XPM */
static char * global_xpm[] = {
/* width height ncols cpp */
"16 16 7 2",
  /* Colors */
  "00 c #000000",
  "01 c #000080",
  "02 c #808080",
  "03 c #C0C0C0",
  "04 c #0000FF",
  "05 c #FFFFFF",
  ".. s None c None",
  "................................",
  "................................",
  "..02020202020202020202020200....",
  "..02010101010101010101010100....",
  "..02010101010101010101010100....",
  "..02050505050505050505050500....",
  "..02050303030303030505050500....",
  "..02050505050505050505050500....",
  "..02050505030303030300000000....",
  "..0205050505050500000404040000..",
  "..0205050303030300040404040400..",
  "..0205050505050500040404040400..",
  "..0205050505050500040404040400..",
  "..0000000000000000000404040000..",
  "..................0000000000....",
  "................................"};
