/* XPM */
static char * item_xpm[] = {
/* width height ncols cpp */
"16 16 7 2",
  /* Colors */
  "00 c #000000",
  "01 c #800000",
  "02 c #808000",
  "03 c #808080",
  "04 c #FFFF00",
  "05 c #FFFFFF",
  ".. s None c None",
  "................................",
  "..030303........................",
  "..03050503......................",
  "..0305050503....................",
  "....0305050503..................",
  "......0305050503....03..........",
  "........0305050503030403........",
  "..........03050505030403........",
  "............030505050203........",
  "............030305020203........",
  "..........0302020202020203......",
  "............0303030302020103....",
  "....................0301010103..",
  "......................030103....",
  "........................03......",
  "................................"};
