/* XPM */
static char * none_xpm[] = {
/* width height ncols cpp */
"16 16 3 2",
  /* Colors */
  "00 c #000000",
  "01 c #FF0000",
  ".. s None c None",
  "................................",
  "..........000000000000..........",
  "........0001010101010100........",
  "......00010101010101010100......",
  "....000101000000000001010100....",
  "..00010100......000101010100....",
  "..00010100....0001010100010100..",
  "..00010100..000101010000010100..",
  "..000101000001010100..00010100..",
  "..0001010001010100....00010100..",
  "..00010101010100......000100....",
  "....000101010000000000010100....",
  "......00010101010101010100......",
  "........0001010101010100........",
  "..........000000000000..........",
  "................................"};
