/* XPM */
static char * noref_xpm[] = {
/* width height ncols cpp */
"16 16 7 2",
  /* Colors */
  "00 c #000000",
  "01 c #000080",
  "02 c #C0C0C0",
  "03 c #808080",
  "04 c #FFFF00",
  "05 c #FFFFFF",
  ".. s None c None",
  "................................",
  "................................",
  "..03030303030303030303030300....",
  "..03010101010101010101010100....",
  "..03010101010101010101010100....",
  "..03050505050505050505050500....",
  "..03050202020202020505050500....",
  "..03050505050505050000000000....",
  "..0305050502020200000404040000..",
  "..0305050505050500040000000400..",
  "..0305050202020200000505000400..",
  "..0305050505050505050500000400..",
  "..0305050505050505050004040000..",
  "..00000000000000000000040000....",
  "....................000400......",
  "....................000000......"};
