/* XPM */
static char * nwntreasure_xpm[] = {
/* width height ncols cpp */
"32 32 7 2",
  /* Colors */
  "00 c #000000",
  "01 c #000080",
  "02 c #808080",
  "03 c #C0C0C0",
  "04 c #0000FF",
  "05 c #FFFFFF",
  ".. s None c None",
  "................................................................",
  "................................................................",
  "................................................................",
  "................................................................",
  "....0202020202020202020202020202020202020202020202020000........",
  "....0202020202020202020202020202020202020202020202020000........",
  "....0202010101010101010101010101010101010101010101010000........",
  "....0202010101010101010101010101010101010101010101010000........",
  "....0202010101010101010101010101010101010101010101010000........",
  "....0202010101010101010101010101010101010101010101010000........",
  "....0202050505050505050505050505050505050505050505050000........",
  "....0202050505050505050505050505050505050505050505050000........",
  "....0202050503030303030303030303030305050505050505050000........",
  "....0202050503030303030303030303030305050505050505050000........",
  "....0202050505050505050505050505050505050505050505050000........",
  "....0202050505050505050505050505050505050505050505050000........",
  "....0202050505050505030303030303030303030000000000000000........",
  "....0202050505050505030303030303030303030000000000000000........",
  "....02020505050505050505050505050000000004040404040400000000....",
  "....02020505050505050505050505050000000004040404040400000000....",
  "....02020505050503030303030303030000040404040404040404040000....",
  "....02020505050503030303030303030000040404040404040404040000....",
  "....02020505050505050505050505050000040404040404040404040000....",
  "....02020505050505050505050505050000040404040404040404040000....",
  "....02020505050505050505050505050000040404040404040404040000....",
  "....02020505050505050505050505050000040404040404040404040000....",
  "....00000000000000000000000000000000000004040404040400000000....",
  "....00000000000000000000000000000000000004040404040400000000....",
  "....................................00000000000000000000........",
  "....................................00000000000000000000........",
  "................................................................",
  "................................................................",
};
