/* XPM */
static char * placeable_xpm[] = {
/* width height ncols cpp */
"16 16 7 2",
  /* Colors */
  "00 c #000000",
  "01 c #800000",
  "02 c #808000",
  "03 c #808080",
  "04 c #FF0000",
  "05 c #FFFF00",
  ".. s None c None",
  "..................03............",
  "..............03030403..........",
  "............030404040403........",
  "........030304040404040403......",
  "......0304040404040404040403....",
  "....03040404040404040504040403..",
  "..0304050405040504050404040103..",
  "..0301040504050405040401010103..",
  "..0301010405040504040103020103..",
  "..0301020104050402010303020103..",
  "..030102030104020103..030203....",
  "....0303..03010203....0303......",
  "..........03010203..............",
  "..........03010203..............",
  "..........030103................",
  "................................"};
