/* XPM */
static char *profile_xpm[] = {
/* width height ncols cpp */
"16 16 7 2",
  /* Colors */
  "00 c #000000",
  "01 c #C0C0C0",
  "02 c #808080",
  "03 c #0000FF",
  "04 c #00FFFF",
  "05 c #FFFFFF",
  ".. s None c None",
  "........00000000000000..........",
  "......000000000000000000........",
  "....000000000000020500..........",
  "....00000000020105010500........",
  "....00000000000501050000........",
  "....0000000000000501030100......",
  "....000000000105010501050100....",
  "......00000000010501050100......",
  "........000000050105010000......",
  "........000000010501050100......",
  "..........00010500000000........",
  "........00000001050100..........",
  "......00000404000105000000......",
  "....000404000404000004000400....",
  "......0404040000040400000404....",
  "................................"};
