/* XPM */
static char * prop_xpm[] = {
"16 16 8 1",
" 	c None",
".	c #000000",
"+	c #0000FF",
"@	c #808080",
"#	c #FFFFC0",
"$	c #FFFF00",
"%	c #800000",
"&	c #808000",
"        ..... ++",
"      @.#.###.++",
"     @.#.#.###++",
"     .#.#.#.##++",
"      .$.#.#..++",
"      @%&.#.@ ++",
"       @&$.$&@  ",
"   @@@@@%&%%%@  ",
"  @$$$&&&&$$&@  ",
"  @&%&&&&&%%%@  ",
"   @&$&&&&$$&@  ",
"   @%&%&%&%%%@  ",
"   @&$&&&&&$&@  ",
"   @%&%%..%%.@  ",
"    @@@@@@@@@   ",
"                "};
