/* XPM */
static char * table_xpm[] = {
"16 16 4 1",
" 	c None",
".	c #000000",
"+	c #808080",
"@	c #C3C3C3",
"                ",
" .............+ ",
" .@@@@@@@@@@@.+ ",
" .............+ ",
" .   .   .   .+ ",
" .   .   .   .+ ",
" .............+ ",
" .   .   .   .+ ",
" .   .   .   .+ ",
" .   .   .   .+ ",
" .............+ ",
" .   .   .   .+ ",
" .   .   .   .+ ",
" .   .   .   .+ ",
" .............+ ",
"  +++++++++++++ "};
